HIERARCHY
ROOT Hips
{
	OFFSET 0.000000 0.000000 0.000000
	CHANNELS 6 Xposition Yposition Zposition Xrotation Yrotation Zrotation
	JOINT LeftUpLeg_virtual
	{
		OFFSET 0.000000 0.000000 0.000000
		CHANNELS 3 Xrotation Yrotation Zrotation
		JOINT LeftUpLeg
		{
			OFFSET 13.026900 -6.336304 -1.092800
			CHANNELS 3 Xrotation Yrotation Zrotation
			JOINT LeftLeg
			{
				OFFSET 0.524474 -46.096886 9.782700
				CHANNELS 3 Xrotation Yrotation Zrotation
				JOINT LeftFoot
				{
					OFFSET -0.524474 -53.427422 -12.948200
					CHANNELS 3 Xrotation Yrotation Zrotation
					JOINT LeftToeBase
					{
						OFFSET 0.192200 -14.009700 16.364100
						CHANNELS 3 Xrotation Yrotation Zrotation
						JOINT LeftToe_End
						{
							OFFSET -1.784700 -0.561700 9.474800
							CHANNELS 3 Xrotation Yrotation Zrotation
							End Site
							{
								OFFSET 0 0 0
							}
						}
					}
				}
			}
		}
	}
	JOINT RightUpLeg_virtual
	{
		OFFSET 0.000000 0.000000 0.000000
		CHANNELS 3 Xrotation Yrotation Zrotation
		JOINT RightUpLeg
		{
			OFFSET -12.883000 -6.336304 -1.092800
			CHANNELS 3 Xrotation Yrotation Zrotation
			JOINT RightLeg
			{
				OFFSET -0.524587 -46.096825 9.782800
				CHANNELS 3 Xrotation Yrotation Zrotation
				JOINT RightFoot
				{
					OFFSET 0.524587 -53.427383 -12.948300
					CHANNELS 3 Xrotation Yrotation Zrotation
					JOINT RightToeBase
					{
						OFFSET -0.192200 -14.009700 16.364100
						CHANNELS 3 Xrotation Yrotation Zrotation
						JOINT RightToe_End
						{
							OFFSET 1.784700 -0.561700 9.474800
							CHANNELS 3 Xrotation Yrotation Zrotation
							End Site
							{
								OFFSET 0 0 0
							}
						}
					}
				}
			}
		}
	}
	JOINT Spine_virtual
	{
		OFFSET 0.000000 0.000000 0.000000
		CHANNELS 3 Xrotation Yrotation Zrotation
		JOINT Spine
		{
			OFFSET 0.072000 7.257294 -0.789700
			CHANNELS 3 Xrotation Yrotation Zrotation
			JOINT Spine1
			{
				OFFSET 0.000000 12.508769 -0.658067
				CHANNELS 3 Xrotation Yrotation Zrotation
				JOINT Spine1_split
				{
					OFFSET 0.000000 12.508769 -0.658067
					CHANNELS 3 Xrotation Yrotation Zrotation
					JOINT Spine2
					{
						OFFSET 0.000000 12.508769 -0.658067
						CHANNELS 3 Xrotation Yrotation Zrotation
						JOINT Neck_virtual
						{
							OFFSET 0.000000 0.000000 0.000000
							CHANNELS 3 Xrotation Yrotation Zrotation
							JOINT Neck
							{
								OFFSET 0.000000 14.033295 7.520400
								CHANNELS 3 Xrotation Yrotation Zrotation
								JOINT Head
								{
									OFFSET 0.000000 8.198502 5.703100
									CHANNELS 3 Xrotation Yrotation Zrotation
									JOINT HeadTop_End
									{
										OFFSET 0.000000 17.760803 13.332701
										CHANNELS 3 Xrotation Yrotation Zrotation
										End Site
										{
											OFFSET 0 0 0
										}
									}
								}
							}
						}
						JOINT LeftShoulder_virtual
						{
							OFFSET 0.000000 0.000000 0.000000
							CHANNELS 3 Xrotation Yrotation Zrotation
							JOINT LeftShoulder
							{
								OFFSET 6.292450 5.785301 -0.669000
								CHANNELS 3 Xrotation Yrotation Zrotation
								JOINT LeftShoulder_split
								{
									OFFSET 6.292450 5.785301 -0.669000
									CHANNELS 3 Xrotation Yrotation Zrotation
									JOINT LeftArm
									{
										OFFSET 13.907140 -6.093903 1.965100
										CHANNELS 3 Xrotation Yrotation Zrotation
										JOINT LeftForeArm
										{
											OFFSET 34.140198 0.000000 0.000000
											CHANNELS 3 Xrotation Yrotation Zrotation
											JOINT LeftHand
											{
												OFFSET 40.960209 0.000000 0.000000
												CHANNELS 3 Xrotation Yrotation Zrotation
												End Site
												{
													OFFSET 0 0 0
												}
											}
										}
									}
								}
							}
						}
						JOINT RightShoulder_virtual
						{
							OFFSET 0.000000 0.000000 0.000000
							CHANNELS 3 Xrotation Yrotation Zrotation
							JOINT RightShoulder
							{
								OFFSET -6.292450 5.785301 -0.669000
								CHANNELS 3 Xrotation Yrotation Zrotation
								JOINT RightShoulder_split
								{
									OFFSET -6.292450 5.785301 -0.669000
									CHANNELS 3 Xrotation Yrotation Zrotation
									JOINT RightArm
									{
										OFFSET -13.907140 -6.093903 1.965100
										CHANNELS 3 Xrotation Yrotation Zrotation
										JOINT RightForeArm
										{
											OFFSET -34.140198 0.000000 0.000000
											CHANNELS 3 Xrotation Yrotation Zrotation
											JOINT RightHand
											{
												OFFSET -40.960209 0.000000 0.000000
												CHANNELS 3 Xrotation Yrotation Zrotation
												End Site
												{
													OFFSET 0 0 0
												}
											}
										}
									}
								}
							}
						}
					}
				}
			}
		}
	}
}
MOTION
Frames: 6
Frame Time: 0.03333333
-1.019500 106.200371 -0.478901 0.000000 0.000000 0.000000 -7.589728 -45.499018 -3.991108 -31.395992 3.279452 11.263470 33.332163 -8.523667 2.437016 -2.105660 -0.492798 -8.508420 -2.033069 -1.516247 1.366352 0.000000 0.000000 0.000000 -7.229909 -41.576372 -3.257649 -4.458746 -15.143192 -12.186768 31.186446 17.163977 -5.223231 -17.231929 0.080303 3.207384 -3.217402 -1.573780 2.272800 0.000000 0.000000 0.000000 -9.270497 -43.866108 -5.151829 5.595573 -0.756971 1.409396 14.213498 0.196372 0.183913 0.931121 2.488206 -0.102719 0.000000 0.000000 0.000000 13.102173 0.358048 -0.338786 6.073548 -26.708164 -2.098635 -11.307899 -41.725298 0.287692 0.000000 0.000000 0.000000 13.677563 0.465391 -0.339446 0.056225 -6.109288 -7.138791 -4.547981 -3.722114 -0.571411 -1.997602 9.714306 -60.663780 0.718007 -55.538952 -2.484698 0.000000 0.000000 0.000000 14.555802 0.941230 -0.245162 0.809191 5.540287 8.184783 4.281036 1.881719 1.895037 4.656230 -24.770531 70.391704 -7.388608 56.653554 6.993290 0.000000 0.000000 0.000000 
-0.945403 106.466293 -0.558174 0.000000 0.000000 0.000000 -7.861655 -49.405224 -4.288453 -29.712679 3.681512 12.404961 32.844723 -6.564973 2.090070 -2.632466 0.158141 -9.835323 -2.017852 -1.536651 1.317038 0.000000 0.000000 0.000000 -7.451531 -45.618437 -3.515914 -6.901452 -14.900336 -12.430375 32.165236 17.921694 -5.975148 -16.658956 0.303146 3.392058 -2.766420 -1.138787 2.194853 0.000000 0.000000 0.000000 -9.641706 -47.977469 -5.622473 5.324086 -1.463249 1.389754 14.813009 -1.072942 0.557287 0.833966 2.481942 -0.218644 0.000000 0.000000 0.000000 13.610639 -0.843642 0.035005 6.210592 -26.614158 -2.489490 -11.068402 -43.018929 1.199584 0.000000 0.000000 0.000000 14.267920 -0.755233 -0.022852 -0.082048 -7.671930 -6.955787 -4.569820 -3.492514 -0.876042 -0.520255 10.829982 -60.572187 0.516290 -56.535801 -2.480699 0.000000 0.000000 0.000000 15.177232 -0.251531 0.127576 0.839453 4.215555 8.263791 4.654754 1.480100 2.055334 5.178125 -24.137439 70.181054 -6.779195 57.825993 6.710924 0.000000 0.000000 0.000000 
-0.891695 106.754639 -0.602402 0.000000 0.000000 0.000000 -8.130182 -53.284505 -4.547324 -27.913960 4.285875 13.414087 32.351864 -4.558096 1.769207 -3.091246 0.742720 -11.193745 -2.048284 -1.573777 1.288582 0.000000 0.000000 0.000000 -7.660295 -49.642389 -3.729273 -9.127647 -14.555983 -12.601727 33.051839 18.412762 -6.693167 -16.201055 0.387670 3.674541 -2.406402 -0.820297 2.126792 0.000000 0.000000 0.000000 -10.031221 -52.027187 -6.087311 5.054482 -2.096153 1.341286 15.357638 -2.226706 0.869277 0.767190 2.428452 -0.302392 0.000000 0.000000 0.000000 14.084495 -1.930959 0.344254 6.071811 -26.426297 -2.994810 -10.652409 -44.135767 2.092959 0.000000 0.000000 0.000000 14.813309 -1.863595 0.236900 -0.221704 -9.074570 -6.721509 -4.556147 -3.222892 -1.097717 0.653094 11.954710 -60.337311 0.135025 -57.638559 -2.583678 0.000000 0.000000 0.000000 15.758723 -1.335050 0.441315 0.910142 2.860856 8.531924 5.112386 1.122751 2.179705 5.739562 -23.851212 69.697327 -6.161899 59.078582 6.494111 0.000000 0.000000 0.000000 
-0.849624 107.044952 -0.615063 0.000000 0.000000 0.000000 -8.404052 -57.101843 -4.785891 -26.028471 5.076302 14.271380 31.830003 -2.516601 1.474934 -3.525897 1.256149 -12.562796 -2.083588 -1.623112 1.272573 0.000000 0.000000 0.000000 -7.836998 -53.595798 -3.905852 -11.089151 -14.113567 -12.693254 33.791869 18.641092 -7.347031 -15.896280 0.336829 3.967224 -2.017795 -0.600892 2.065983 0.000000 0.000000 0.000000 -10.433023 -55.978769 -6.554928 4.807429 -2.641143 1.271562 15.805947 -3.232134 1.098280 0.729537 2.372256 -0.393494 0.000000 0.000000 0.000000 14.490531 -2.868237 0.567488 5.707059 -26.175491 -3.545043 -10.120834 -45.142831 2.952037 0.000000 0.000000 0.000000 15.284027 -2.827657 0.422964 -0.359793 -10.301230 -6.451151 -4.482318 -2.924885 -1.232126 1.436408 12.959233 -59.941617 -0.382091 -58.691092 -2.770497 0.000000 0.000000 0.000000 16.254411 -2.277310 0.671348 1.032025 1.556103 8.976268 5.614376 0.822872 2.280224 6.285306 -23.889109 68.959646 -5.617777 60.324053 6.392047 0.000000 0.000000 0.000000 
-0.821183 107.319847 -0.591873 0.000000 0.000000 0.000000 -8.712384 -60.864424 -5.047993 -24.084145 6.014396 14.972284 31.269395 -0.454525 1.207374 -3.959126 1.695793 -13.934672 -2.119664 -1.679859 1.263483 0.000000 0.000000 0.000000 -7.963289 -57.462750 -4.046340 -12.758017 -13.583728 -12.707954 34.375833 18.636767 -7.905221 -15.670095 0.173141 4.231950 -1.558137 -0.455239 2.000574 0.000000 0.000000 0.000000 -10.885572 -59.783355 -7.051754 4.602710 -3.103165 1.181427 16.127289 -4.079082 1.239047 0.740799 2.287433 -0.403205 0.000000 0.000000 0.000000 14.809262 -3.642390 0.700939 5.182274 -25.866611 -4.074409 -9.546025 -46.052083 3.734859 0.000000 0.000000 0.000000 15.658379 -3.632520 0.540663 -0.494048 -11.346532 -6.157386 -4.393579 -2.586379 -1.318593 1.887786 13.730407 -59.405331 -0.974948 -59.524518 -2.998678 0.000000 0.000000 0.000000 16.627834 -3.068477 0.810296 1.197334 0.365228 9.539048 6.121604 0.567432 2.395693 6.681489 -24.150366 68.052125 -5.220530 61.359728 6.432392 0.000000 0.000000 0.000000 
-0.803847 107.572289 -0.545547 0.000000 0.000000 0.000000 -9.107289 -64.584192 -5.387211 -22.115347 7.046028 15.531848 30.709507 1.618185 0.963888 -4.376338 2.069685 -15.285292 -2.163416 -1.739120 1.259123 0.000000 0.000000 0.000000 -8.066854 -61.247645 -4.178807 -14.167610 -13.004441 -12.671282 34.790316 18.468082 -8.352001 -15.366836 -0.066703 4.523560 -1.125222 -0.363144 1.911245 0.000000 0.000000 0.000000 -11.408065 -63.432814 -7.620996 4.444588 -3.495360 1.074314 16.310770 -4.772663 1.306175 0.708133 2.176338 -0.411444 0.000000 0.000000 0.000000 15.032756 -4.261033 0.761282 4.564265 -25.514921 -4.531016 -8.984197 -46.873625 4.397906 0.000000 0.000000 0.000000 15.935286 -4.284884 0.607422 -0.620029 -12.239691 -5.838918 -4.356099 -2.224945 -1.390292 2.091556 14.207549 -58.787773 -1.552903 -60.063755 -3.195703 0.000000 0.000000 0.000000 16.865803 -3.717491 0.875657 1.399086 -0.671070 10.168649 6.620399 0.351851 2.486254 6.866207 -24.554515 67.106691 -4.987387 61.934140 6.594683 0.000000 0.000000 0.000000 
